# xmcd
#
# Track frame offsets:
#	150
#	12299
#	29212
#	41862
#	54716
#	67249
#	81041
#	112719
#	125173
#	140260
#	153747
#	168683
#	182340
#	195631
#	208026
#	222067
#	235362
#	248289
#	262416
#	276622
#	290544
#	303087
#	316489
#
# Disc length: 4371 seconds
#
# Revision: 2
# Processed by: cddbd v1.4b42PL1 Copyright (c) Steve Scherf et al.
# Submitted via: EZCDDA 4.3.2
#
DISCID=65111117
DTITLE=Alimony blues - T-bone Walker
DYEAR=1900
DGENRE=
TTITLE0=T-Bone Walker - Alimony blues
TTITLE1=T-Bone Walker - baby broke my heart
TTITLE2=T-Bone Walker - Blues Is A Woman
TTITLE3=T-Bone Walker - Blues Rock
TTITLE4=T-Bone Walker - Bye Bye Baby
TTITLE5=T-Bone Walker - Call It Stormy Monday
TTITLE6=T-Bone Walker - Dedication To The Late
TTITLE7=T-Bone Walker - Glamour girl
TTITLE8=T-Bone Walker - Guitar Boogie
TTITLE9=T-Bone Walker - Home Town Blues
TTITLE10=T-Bone Walker - I got A Break Baby
TTITLE11=T-Bone Walker - Long Lost Lover
TTITLE12=T-Bone Walker - My Baby Left Me
TTITLE13=T-Bone Walker - Papa Ain't Salty -
TTITLE14=T-Bone Walker - Plain Old Down Home Blues
TTITLE15=T-Bone Walker - Poontang
TTITLE16=T-Bone Walker - Prison blues
TTITLE17=T-Bone Walker - She's The No-Sleepin'est Woman
TTITLE18=T-Bone Walker - So blue blues
TTITLE19=T-Bone Walker - Street Walking Woman
TTITLE20=T-Bone Walker - T-bone Shuffler
TTITLE21=T-Bone Walker - Vacation Blues
TTITLE22=T-Bone Walker - Play On Little Girl
EXTD=
EXTT0=
EXTT1=
EXTT2=
EXTT3=
EXTT4=
EXTT5=
EXTT6=
EXTT7=
EXTT8=
EXTT9=
EXTT10=
EXTT11=
EXTT12=
EXTT13=
EXTT14=
EXTT15=
EXTT16=
EXTT17=
EXTT18=
EXTT19=
EXTT20=
EXTT21=
EXTT22=
PLAYORDER=
